<?xml version="1.0" encoding="UTF-8"?>
<svg id="SVGRoot" width="500" height="500" version="1.1" viewBox="0 0 500 500" xmlns="http://www.w3.org/2000/svg" xmlns:cc="http://creativecommons.org/ns#" xmlns:dc="http://purl.org/dc/elements/1.1/" xmlns:rdf="http://www.w3.org/1999/02/22-rdf-syntax-ns#">
 <metadata>
  <rdf:RDF>
   <cc:Work rdf:about="">
    <dc:format>image/svg+xml</dc:format>
    <dc:type rdf:resource="http://purl.org/dc/dcmitype/StillImage"/>
    <dc:title/>
   </cc:Work>
  </rdf:RDF>
 </metadata>
 <g stroke-linejoin="round">
  <g stroke="#fff" stroke-linecap="round">
   <path d="m12.841 507.84c-0.79057-60.708 4.1694-103.44 7.3633-164.79 0.57706-11.084 9.4322-47.289 12.139-59.918 16.541-77.176 34.216-131.22 74.832-188.76 10.424-14.766 26.063-24.591 37.354-36.342 20.36-21.189 49.689-25.073 73.493-37.998 15.333-8.325 66.563-10.376 84.128-4.6666 34.664 11.267 64.016 38.289 91.421 68.508 9.9707 10.994 17.427 26.634 27.122 36.131 5.3068 5.1987 11.326 22.2 15.054 29.932 34.333 71.218 27.185 117.73 41.271 195.47 3.9241 21.655 2.6574 43.616 8.0396 64.221 2.9971 11.474 1.7596 32.998 2.63 45.333 1.0934 15.495 0.47041 19.594 1.1073 48.183" stroke-width="20"/>
   <path d="m229.29 332.25c-22.451 1.0725-89.325 26.074-78.724 50.187 9.3663 21.304 50.768 25.927 74.624 28.913 7.9386 0.99367 17.905 1.4541 25.782 2.9176 20.387 2.5488 42.749 2.1532 62.31 2.1074 10.157 0 19.132-6.1232 28.968-8.3122 31.723-7.0596 33.702-22.76 17.239-43.219-8.89-6.4744-10.944-8.4135-19.428-12.988-12.788-10.321-47.471-15.194-63.38-18.432-9.81-1.9969-7.6469-3.0732-35.314-1.7515z" fill="none" stroke-width="20"/>
   <g transform="matrix(1.3374 -.33573 .32062 1.2772 -244.9 -139.68)" fill="none" stroke-width="2.2264">
    <path d="m164.24 479.93c0.25034-3.0284-1.1214-6.7153-0.39843-9.7663 1.324-5.5873 7.6491-4.3913 9.9748-8.7673 5.4247-10.207-0.68368-17.937-0.68368-27.077"/>
    <path d="m161.87 476.07c-1.2971-1.7208-2.0123-4.7967-1.3518-7.453 0.70655-2.8412 2.7047-4.5375 3.5431-7.0646 0.71988-2.1697 1.2551-7.6779 0.47348-9.9885-2.3187-6.8547-11.046-11.866-4.9988-21.075"/>
    <path d="m139.22 438.73c-5.0579 2.4869-2.6061 6.907-3.9472 10.797-0.79467 2.3051 0.38078 3.293 0.71069 5.6658 0.72808 5.2369 7.7069 9.951 11.808 13.149 0.89125 0.69494 2.5984 1.5611 3.2143 2.5063 1.5422 2.3667 0.81104 5.1771 2.1032 7.893 0.87818 1.8458 5.0467 5.1999 7.0426 6.0965 0.90825 0.40801 1.5618 0.0229 2.2492 0.5591"/>
   </g>
  </g>
  <g transform="translate(2.2473 -2.4069)" stroke="#fff">
   <path d="m170.64 397.66c9.3054-5.6991 19.366-11.984 28.686-17.751 15.269-9.4484 30.932-21.106 47.275-28.824 4.9562-2.3409 10.412-6.4074 14.879-6.2085 1.8289 0.0816 9.9486 10.56 10.535 15.032 0.34286 2.6137-2.8701 3.5806-5.3022 5.5989-6.6734 5.538-31.008 20.287-39.809 25.732l-43.614 26.988c-6.7849 4.1984-15.233 9.8842-21.715 14.48-13.288 8.7768-33.382 21.046-33.429-3.0837 1.0605-4.5299 8.9783-9.2327 13.463-12.796 8.5861-7.1904 19.45-13.242 29.031-19.167z" stroke-width="4"/>
   <g stroke-linecap="round" stroke-width="2">
    <path d="m137.48 421.07c2.3806-0.22937 3.6762 1.8383 4.9005 3.5722 1.4642 2.0736 2.4657 4.7306 2.8737 7.1846 0.43241 2.6012 6.7281 4.384 8.6168 5.2891"/>
    <path d="m143.94 441.85c-2.1739-14.308-6.3196-10.651-11.431-17.093"/>
    <path d="m129.54 429.8c0.98929 0 3.2623 0.3918 4.2119 0.68533 3.0095 0.93017 5.0789 11.595 7.3659 11.595"/>
    <path d="m128.85 435.11c1.7942 0.32285 7.5168-0.78377 5.7947 7.6811"/>
   </g>
  </g>
  <g stroke="#fff">
   <g stroke-linecap="round" stroke-width=".2">
    <path d="m231.72 361.6c-1.5122-1.5375-3.5791-4.56-5.9004-8.628-1.6355-2.8662-3.5104-6.5162-3.7988-7.3954-0.12876-0.39245-0.37935-1.0556-0.55688-1.4737-0.17755-0.41806-0.30392-0.77854-0.28082-0.80108 0.07-0.0684 3.5345-0.68602 5.0228-0.89551 1.6193-0.22796 4.5892-0.46181 5.8707-0.46225 0.73113-2.6e-4 0.90007 0.0398 0.95658 0.22673 0.40897 1.3533 0.5076 9.7892 0.15965 13.656-0.22723 2.5251-0.55402 5.1948-0.73013 5.965l-0.1046 0.45736z" style="paint-order:markers fill stroke"/>
    <path d="m246.3 361.42c-1.8797-1.3454-4.339-5.717-6.7349-11.972-0.96303-2.514-2.6119-7.3833-2.5282-7.466 0.0976-0.0964 13.216-0.70871 13.305-0.62095 0.0258 0.0256 0.17016 0.9256 0.32061 2.0001 0.22835 1.6307 0.27491 2.6053 0.28173 5.8961 9e-3 4.2409-0.0833 5.1364-0.7781 7.5671-0.64527 2.2574-2.3305 4.9599-3.093 4.9599-0.14505 0-0.49302-0.16413-0.7733-0.36474z" style="paint-order:markers fill stroke"/>
    <path d="m262.04 358.18c-1.7491-2.0707-3.8786-6.7852-6.1577-13.633-0.61378-1.8442-1.0798-3.3895-1.0355-3.434 0.1426-0.14354 8.3835-0.0932 10.027 0.0612 1.4699 0.13812 3.4074 0.44562 3.5197 0.55864 0.0705 0.071-0.30087 2.4746-0.66607 4.3105-1.0017 5.0355-2.5765 9.4478-4.1788 11.708-0.86333 1.2178-0.84632 1.213-1.5089 0.42855z" style="paint-order:markers fill stroke"/>
   </g>
   <path d="m188.72 386.66c-5.8581-10.457-25.751 0.23616-25.751 0.23616s19.009-12.011 9.1942-15.371c-9.815-3.3603-10.884-4.9498-10.884-4.9498s21.46 7.7909 20.745 2.5517c-0.71513-5.2391-4.1158-12.378-4.1158-12.378h-1e-3c14.127 9.2446 10.555 16.757 20.901 11.099 10.346-5.6575 2.7938-20.393 2.7938-20.393s8.9171 27.659 16.345 15.589c7.4281-12.071 0.0446-21.275 0.0446-21.275s14.384 32.332 16.266 19.272c1.8816-13.06 0.0173-21.684 0.0173-21.684s8.1389 30.408 14.963 23.078c6.8243-7.3301 2.1474-25.818 2.1474-25.818s7.6095 28.836 12.736 23.501c5.1269-5.3352 6.4309-19.33 6.4309-19.33s3.4288 29.006 12.938 21.092c9.5096-7.9134 13.028-15.674 13.028-15.674s-7.9071 21.598 4.2431 19.464c12.15-2.1339 10.17-16.62 10.17-16.62s2.0404 28.083 10.161 21.775c8.1205-6.3085 6.9823-16.647 6.9823-16.647s-1.4387 20.912 5.3458 20.043c6.7846-0.86922 12.611-8.4464 12.611-8.4464s-6.7888 14.619-1.3686 13.511c5.4203-1.1083 11.261-4.8881 11.261-4.8881s-10.683 7.3757-7.1999 9.703 11.792 4.2699 11.792 4.2699-20.302-4.1934-14.086 3.8812c6.2154 8.0745 3.8745 8.1531 3.8745 8.1531s-15.511-21.539-18.031-10.347c-2.5195 11.192-0.80794 13.489-0.80794 13.489s-11.979-22.341-16.792-12.846c-4.8136 9.4956-2.7434 19.581-2.7434 19.581s-4.0971-28.64-13.095-21.126c-8.9979 7.514-5.9242 20.316-5.9242 20.316s-12.045-29.427-15.95-21.795c-3.905 7.6315-6.4543 20.104-6.4543 20.104s-2.9766-29.477-11.469-19.232c-8.4926 10.245-6.752 17.133-6.752 17.133s-2.0305-28.088-10.183-17.823c-8.1524 10.265-10.776 17.076-10.776 17.076s0.9903-10.788-1.5296-14.421" fill="none" stroke-width="4" style="paint-order:normal"/>
  </g>
  <g fill="none" stroke-linecap="round">
   <g stroke-width="4">
    <path d="m121.49 168.53c12.206-6.721 18.73 8.7035 29.08 8.7035" stroke="#000"/>
    <g stroke="#fe0000">
     <path d="m120.21 167.28c0.89454-0.14066 5.2009-1.3294 6.0586-0.47168 2.6094 2.6094 4.3695 6.0923 8.0947 7.3506 4.4702 1.51 10.111 0.17369 14.315 1.542" stop-color="#000000" style="font-variation-settings:normal"/>
     <path d="m112.19 184.97c9.2797-3.7538 8.6385 7.3713 12.822 11.43 3.0465 2.9552 7.9696 5.5405 10.152 8.0166" stop-color="#000000" style="font-variation-settings:normal"/>
     <path d="m126.57 197.56c2.9378-3.9166 1.6717-10.023 7.4805-10.023" stop-color="#000000" style="font-variation-settings:normal"/>
     <path d="m122.41 192.56c-0.71582 0.59905-0.784 4.0039-1.7529 4.501-1.0119 0.51914-8.6703-0.0342-11.097-0.0342" stop-color="#000000" style="font-variation-settings:normal"/>
     <path d="m107.07 207.1c1.1703-0.2089 3.9522-1.4649 5.3701-0.76954 0.77646 0.38078 1.2875 1.293 1.9228 1.9014 2.5571 2.4482 8.1367-0.57079 9.9717-1.4883" stop-color="#000000" style="font-variation-settings:normal"/>
     <path d="m106.04 224.11c1.0939-0.86931 2.0466-0.9209 3.377-0.9209 0.47596 0 3.8208 0.46147 4.2822 0 1.4633-1.4633 9.147-8.9023 11.025-8.9023" stop-color="#000000" style="font-variation-settings:normal"/>
     <path d="m104.57 247.81c0.14062-2.1175 2.2621-3.489 3.7392-4.8213 1.6461-1.4847 3.3118-2.4614 5.0449-3.6904 1.3942-0.98868 2.3938-3.4778 3.4355-4.5195 1.1221-1.1221-0.47933-4.4868 0.5-5.5186 1.1023-1.1613 2.46 1.9565 2.46 2.5693" stop-color="#000000" style="font-variation-settings:normal"/>
     <path d="m130.09 239.23c-0.49915 0-1.389 0.13325-1.748 0.50391-0.80057 0.8264 0.65254 3.7507 0 4.7295-2.7368 4.1051-5.8312 7.6059-7.8496 13.918-1.3628 2.0808-2.7588 1.8168-2.7588 3.9473" stop-color="#000000" style="font-variation-settings:normal"/>
     <path d="m142.44 262.08c-1.7199-8.6179-5.9773-5.8391 1.0166-12.587 1.0843-1.0462-0.49903-6.0251-0.49903-6.918" stop-color="#000000" style="font-variation-settings:normal"/>
     <path d="m159.61 262.55c-0.88427-1.6201-2.4506-2.7271-2.6728-4.5234-0.37162-3.0034 1.4295-5.4175 2.5508-7.6602 1.7824-3.5649-2.8069-7.0964-3.5557-10.077" stop-color="#000000" style="font-variation-settings:normal"/>
     <path d="m192.74 238.84c-5.5722-2.0422-1.862-0.3876-9.1758-5.3291-3.9908-2.6964-7.5457-5.1481-11.847-6.6358-5.1454-1.7796-12.587 6.5079-15.545-4.5537" stop-color="#000000" style="font-variation-settings:normal"/>
     <path d="m125.69 249.35c7.5153-2.0497 10.118 2.5202 10.118-6.4824" stop-color="#000000" style="font-variation-settings:normal"/>
     <path d="m122.06 254.03c-3.3814-0.77111-8.1695-1.3867-10.938 0-0.81575 0.40866-1.2219 2.0041-1.7744 2.5566-0.72572 0.72572-2.4824-0.0293-2.9238-0.25" stop-color="#000000" style="font-variation-settings:normal"/>
     <path d="m118.14 218.88c-2.4172-1.6474-0.16041-5.4784-1.1611-7.4365-0.27161-0.53146-1.9594-1.6559-1.4961-2.3252 0.0486-0.0702 0.72522 0 0.81542 0" stop-color="#000000" style="font-variation-settings:normal"/>
     <path d="m199.8 230c0.0806-1.5334-1.1079-2.6762-1.5352-3.958-0.17142-0.51426-0.1212-2.1212-0.50488-2.5049-2.1834-2.1834-7.5102-3.7095-9.8106-5.9658-1.79-1.7557-9.8203-0.7547-9.8203-6.7109" stop-color="#000000" style="font-variation-settings:normal"/>
     <path d="m188.92 218.76c1.5048 2.956-3.2564 9.1821 0.4541 11.126 1.1532 0.60414 2.6168 1.299 3.5205 2.0234 1.1488 0.92088-0.75391 5.5097-0.75391 6.165" stop-color="#000000" style="font-variation-settings:normal"/>
     <path d="m196.89 221.43c1.2819-5.898 7.9962-5.4019 9.9346-9.3174 0.2104-0.425-2.8652-5.1762-2.8652-6.7666" stop-color="#000000" style="font-variation-settings:normal"/>
     <path d="m221.81 204.75c-1.4366-2.1246-0.0686-0.38046-3.1875-2.8184-4.9358-3.8582-5.1148-2.3459-9.791-4.6885-0.81475-0.40816-3.1714 0.11477-3.791-0.50488-3.126-3.126-5.1851-5.71-9.7842-5.71" stop-color="#000000" style="font-variation-settings:normal"/>
     <path d="m174.65 250.93c-0.77663-5.0658-9.2839-10.098-6.4434-15.779" stop-color="#000000" style="font-variation-settings:normal"/>
     <path d="m227.58 179.96c-2.2359 1.915-1.9939 1.9486-3.9785 3.0693-8.5086 4.8051-16.331-6.6854-21.287-1.7783" stop-color="#000000" style="font-variation-settings:normal"/>
     <path d="m135.29 148.75c1.1532 1.0342 6.2378 0.65427 6.9814 2.1465 1.014 2.0347 0.61088 4.8519 1.5361 6.6104 1.8396 3.4961 8.6211 2.3665 8.6211 6.2588" stop-color="#000000" style="font-variation-settings:normal"/>
     <path d="m150.49 131.63c0.80274 0.58236 1.6078 1.1616 2.4082 1.7471 3.4201 2.5018 8.7913 5.4128 9.5986 10.238 0.23576 1.4092-2.3588 4.69-1.2588 5.79 1.5329 1.5329 4.0371 2.1001 4.0371 5.4092" stop-color="#000000" style="font-variation-settings:normal"/>
     <path d="m188.84 126.85c-11.054-0.10968-1.3605 19.087-12.118 19.087" stop-color="#000000" style="font-variation-settings:normal"/>
     <path d="m212.34 133.97c-0.55266 3.0727-7.8112 0.72029-8.3779 2.7852-0.64668 2.356 0.75506 3.7787 1.5088 5.2861 0.32801 0.65601 0 2.3198 0 3.0332 0 4.3167-2.8876 5.042-6.6875 5.042" stop-color="#000000" style="font-variation-settings:normal"/>
     <path d="m224.5 156.55c-1.6482 0.78115-3.4876 0.47266-5.252 0.47266-0.99077 0-4.5548-2.4081-5.4629-1.5-3.0148 3.0148-1.7489 6.9093-6.6523 8.6924-1.6185 0.58854-3.1119 0.22502-4.0352-0.7207" stop-color="#000000" style="font-variation-settings:normal"/>
     <path d="m229.6 169.43c-1.9098 0.81359-3.8132 0.9209-5.8291 0.9209-0.90009 0-10.139-1.6423-10.888-1.2637-0.69938 0.35384-1.6004 2.1664-2.2969 2.5146-2.3661 1.183-4.6164 0.51269-7.0928 0.51269" stop-color="#000000" style="font-variation-settings:normal"/>
     <path d="m203.67 188.03c4.1681 0 6.7462 5.2632 8.2432 8.9883 0.31361 1.2094 0.82993 1.6519 1.0684 2.3184" stop-color="#000000" style="font-variation-settings:normal"/>
     <path d="m217.1 201.16c-1.3422 2.0853-2.9926 7.3546-1.668 10.004 0.4675 0.935 0.99707 1.5456 0.99707 3.1045" stop-color="#000000" style="font-variation-settings:normal"/>
     <path d="m206.97 180.64c0.24607-1.496 0.9394-2.2818 2.0566-3.2022 2.1337-1.7578 5.0919-1.2912 6.8447-3.0508 1.275-1.2799-0.71467-4.6211 1.9785-4.6211" stop-color="#000000" style="font-variation-settings:normal"/>
     <path d="m204.14 148.97c2.0644-0.11022 2.3036-0.18028 2.7051 1.7549 1.504 7.2497-2.2129 4.1652-2.2129 8.2998" stop-color="#000000" style="font-variation-settings:normal"/>
     <path d="m182.93 139.06c0.74382 0.53548 1.5132 1.0372 2.2314 1.6064 4.8595 3.8512 2.4306 9.3473 4.6875 10.465" stop-color="#000000" style="font-variation-settings:normal"/>
     <path d="m161.92 150.2c-4.5904 3.5175 3.8657 6.4156 2.3008 9.417-0.70858 1.359-2.9455 1.4217-4.0938 2.5234" stop-color="#000000" style="font-variation-settings:normal"/>
     <path d="m147.07 161.06c-0.58554 0-1.0083-0.26171-1.3125 0.20215-2.8208 4.3013 1.4823 8.1729 2.2832 10.479" stop-color="#000000" style="font-variation-settings:normal"/>
     <path d="m137.34 175.51c0.38086 0.55827 0.75377 1.122 1.1426 1.6748 2.3217 3.3007 7.8694 4.6107 8.3682 5.5918 1.2224 2.4047-2.4933 3.8388-1.5234 5.752" stop-color="#000000" style="font-variation-settings:normal"/>
     <path d="m167.55 238.02c-4.4194-1.1724-3.3204-5.7354-5.5049-7.9199-0.72776-0.72777-2.1601-1.186-2.8975-1.9336" stop-color="#000000" style="font-variation-settings:normal"/>
    </g>
   </g>
   <g stroke="#fe0000" stroke-width="4">
    <path d="m389.33 154.86c-16.33-0.52705-7.7288 7.5796-12.47 14.854-1.1754 1.8036-3.5953 2.1922-5.2774 3.2197-2.3921 1.4613-6.0923 3.3418-8.9033 3.3418" stop-color="#000000" style="font-variation-settings:normal"/>
    <path d="m403.46 190.85c-3.2643-0.77636-6.5478-1.4763-9.793-2.3291-6.4071-1.6836-11.429-3.85-16.882-0.10254-0.39183 0.26927-1.9963 0.23956-2.2734 0.53223-2.9697 3.1363-2.3744 3.4482-7.4443 3.4482" stop-color="#000000" style="font-variation-settings:normal"/>
    <path d="m410.69 207.26c-2.2701 0.50375-2.6758 0.68938-5.0459 0.81543-2.4673 0.13122-6.2365 0.62183-8.6982 0-4.2395-1.0709-8.8119-5.1327-13.217-3.9287-3.1078 0.84949-1.9939 3.6094-6.3711 3.6094" stop-color="#000000" style="font-variation-settings:normal"/>
    <path d="m417.24 231.74c-2.591 0.11225-13.327-7.007-16.429-5.4531-1.8077 0.90557-2.0203 4.3338-3.5322 5.8457-0.829 0.829-1.9824 0.5093-3.0635 0.75489-7.0844 1.6094-11.546-2.0299-15.874-6.3574" stop-color="#000000" style="font-variation-settings:normal"/>
    <path d="m404.69 269.22c-1.2021-1.9468-0.80699-4.5719-1.8955-6.5772-2.4038-4.4282-7.8708-5.8341-11.798-8.4522-2.2758-1.5172-2.5556-6.6396-3.6191-8.7666" stop-color="#000000" style="font-variation-settings:normal"/>
    <path d="m417.9 244.17h-2.7363c-2.8039 0-6.4855 0.0727-9.1914-1.0537-1.9805-0.82441-8.9117-6.9732-10.401-3.959" stop-color="#000000" style="font-variation-settings:normal"/>
    <path d="m369.36 271.1c-9.9078-15.8 4.3695-13.634 1.0772-26.205" stop-color="#000000" style="font-variation-settings:normal"/>
    <path d="m336.02 256.98c1.9246-1.1051 2.9219-1.8901 4.9541-2.4434 0.9616-0.2618 3.6735-0.34348 4.3379-1.0371 8.397-8.767 0.46704-13.095 3.6074-19.63 0.7653-1.5924 2.2934-2.252 3.4443-3.3418 0.954-0.90323 1.2777-1.9832 2.5342-2.6016" stop-color="#000000" style="font-variation-settings:normal"/>
    <path d="m369.05 254.78c-1.4816-2.5562-1.2241-2.5549-3.7285-4.6914-8.8741-7.5706-0.5372-9.3976-3.8037-12.664" stop-color="#000000" style="font-variation-settings:normal"/>
    <path d="m390.45 254.92c1.1774 4.337-9.3016 6.589-12.411 5.0342-1.0666-0.53328-1.254-1.4895-1.8984-2.1738" stop-color="#000000" style="font-variation-settings:normal"/>
    <path d="m394.84 257.16c1.4634-0.15189 2.716-0.83918 3.251-1.9092 0.27866-0.55733 1.0854-1.1903 1.4893-1.998 1.1969-2.3938-4.6119-5.9266-3.1377-7.3662 0.9337-0.91182 2.0839-1.6202 3.002-2.4775" stop-color="#000000" style="font-variation-settings:normal"/>
    <path d="m312.57 228.92c2.1644-1.9488 4.2505-3.9858 7.4111-3.3642 4.1255 0.81132 5.9473 3.6257 9.4805 4.8125 2.8281 0.94997 7.5286-1.4024 8.4824-3.9775 0.23103-0.62372 0.25233-2.3314 0.75976-2.8389 2.1388-2.1388 4.2789-3.0804 6.5361-4.209" stop-color="#000000" style="font-variation-settings:normal"/>
    <path d="m305.16 206.28c1.9566 0.22199 4.5191-0.8284 6.501-0.25391 3.463 1.0039 7.2893 4.2054 11.264 2.8721 2.0307-0.68124 2.2303-4.6218 3.1221-5.8867 1.9867-2.8178 9.287-1.5967 12.373-1.5967" stop-color="#000000" style="font-variation-settings:normal"/>
    <path d="m305.15 179.33c2.1928 2.1361 6.1893-0.42038 8.5 0.72656 1.6513 0.81965 1.8018 4.9336 2.5625 6.4551 1.5729 3.1458 10.515 5.0367 12.191 1.6904" stop-color="#000000" style="font-variation-settings:normal"/>
    <path d="m310.26 146.43c2.8202 1.8417 5.3433 4.1686 6.9717 7.1494 1.7292 3.1654-0.0109 7.1648 1.0762 10.447 1.5976 4.8239 8.9389 6.4091 10.348 7.6035" stop-color="#000000" style="font-variation-settings:normal"/>
    <path d="m315.64 182.95c2.0471-0.52516 4.5299-2.2406 6.7393-1.499 2.1684 0.7278 5.931 2.1819 7.3037-0.56348" stop-color="#000000" style="font-variation-settings:normal"/>
    <path d="m322.32 207.4c1.3216 1.0339 2.639 2.0732 3.9648 3.1016 0.55117 0.42748 2.6216 2.6951 3.9844 2.0205 0.46606-0.2307 1.0944-1.8309 1.5186-2.2559 1.4155-1.4182 5.3577-1.1635 6.3115 0.7627" stop-color="#000000" style="font-variation-settings:normal"/>
    <path d="m333.46 229.94c-5.1965-9.0238-5.0698-10.511 1.3789-13.68" stop-color="#000000" style="font-variation-settings:normal"/>
    <path d="m338.59 233.02c5.3248 2.7144-6.5034 15.575 7.3682 16.775 1.1936 0.10327 2.3926-0.13089 3.5889-0.19629 5.926-1.5808 4.3259-15.023 9.5254-15.023" stop-color="#000000" style="font-variation-settings:normal"/>
    <path d="m382.55 231.25c-3.3532 1.3425-9.2858-3.1799-12.065-1.8037-1.298 0.64265-1.1237 1.2432-2.7227 1.2432" stop-color="#000000" style="font-variation-settings:normal"/>
    <path d="m380.63 208.11c0.81452 1.5918 0.92074 3.6951 0.57325 5.4326-0.42417 2.1208-3.5725 4.1997-2.9951 5.9522 0.34247 1.0395 1.3149 1.9386 1.4043 2.794" stop-color="#000000" style="font-variation-settings:normal"/>
    <path d="m373.19 191.19c1.49 6.4519-0.69559 6.3242-1.9941 8.9522-1.1928 2.4139 1.8356 6.2774-1.9971 6.2774" stop-color="#000000" style="font-variation-settings:normal"/>
    <path d="m379.26 186.42c-3.1187-4.1637-0.0795-4.17 1.4834-7.2959 0.45166-0.90331 0.23093-1.9212 0.74707-2.9453" stop-color="#000000" style="font-variation-settings:normal"/>
    <path d="m368.91 174.21c0.514 1.3499 0.89066 2.7605 1.542 4.0498 2.2207 4.3959-5.6871 5.7776-4.7695 9.1719" stop-color="#000000" style="font-variation-settings:normal"/>
    <path d="m376.24 169.03c-6.9425-7.0906-7.7156 2.5315-14.514-0.90039" stop-color="#000000" style="font-variation-settings:normal"/>
    <path d="m325.47 135.99c0.53309 2.1987 0.92452 4.4366 1.5993 6.596 0.79885 2.5565 2.0565 4.7114 2.5909 7.379 0.18788 0.93797-0.65526 5.2625 0 5.9469 2.0505 2.1417 5.219 0.82963 5.219 4.1032" stop-color="#000000" style="font-variation-settings:normal"/>
    <path d="m350.88 137.66c-0.91472 0.93913-1.8294 1.8782-2.7442 2.8174-0.11785 0-0.31628-0.1118-0.35355 0-2.0171 6.0512 5.3757 10.605 2.4873 16.393-0.72748 1.4578-2.124 2.6694-2.9803 4.3158" stop-color="#000000" style="font-variation-settings:normal"/>
    <path d="m373.31 140.48c-14.084 4.3406 1.6952 10.072-11.805 16.743" stop-color="#000000" style="font-variation-settings:normal"/>
    <path d="m357.67 164.96c-2.1217-2.1662-2.468-7.8755-5.5906-10.021-1.6529-1.6902-1.5703-1.7591-1.5703-3.4071" stop-color="#000000" style="font-variation-settings:normal"/>
    <path d="m331.22 157.18c5.2027-3.6278 8.1618-1.7992 12.801 0.50686" stop-color="#000000" style="font-variation-settings:normal"/>
    <path d="m325.54 170.27c2.9836-0.35916 5.9262-3.3142 8.3113-0.78444" stop-color="#000000" style="font-variation-settings:normal"/>
    <path d="m317.94 158.34c-5.6397 1.7637 0.23094 9.0996-1.149 10.426-0.97012 0.93222-2.3999 1.7202-3.0798 2.4486" stop-color="#000000" style="font-variation-settings:normal"/>
    <path d="m328.24 146.54c-4.5952-0.40094-5.8847 3.115-5.8847 6.7852" stop-color="#000000" style="font-variation-settings:normal"/>
    <path d="m367.11 150.07c3.319 1.882 3.8205 7.0692 5.8226 9.2421" stop-color="#000000" style="font-variation-settings:normal"/>
    <path d="m396.81 207.84c3.2628-7.0535-6.7757-10.363-3.6895-14.029" stop-color="#000000" style="font-variation-settings:normal"/>
   </g>
   <path d="m151.07 121.69c-18.787 11.232-38.042 41.683-44.736 53.382-2.607 4.5559-2.274 10.152-3.6798 15.164-3.3233 11.85-13.2 56.139-4.7028 68.481 8.9537 13.005 36.907 14.709 51.749 11.581 22.351-4.7096 66.535-36.379 76.815-55.93 7.1912-13.676 15.037-37.921 8.4421-53.443-3.527-8.301-6.0261-18.339-13.365-24.769-16.653-14.589-44.809-27.772-70.522-14.467z" stroke="#fff" stroke-width="20"/>
   <path d="m296.91 172.39c0-14.387 1.5714-24.168 7.7605-35.892 8.7135-16.506 67.158-10.651 78.857 0.81093 14.175 13.889 32.3 56.35 38.15 78.187 4.8054 17.94 7.1126 47.75-6.6236 60.812-4.1112 3.9095-56.879 4.836-62.697 2.1075-3.3554-1.5737-8.9099-4.032-12.623-6.3766-14.648-9.2489-29.757-27.126-35.766-39.655-6.1222-18.945-6.83-42.787-7.0572-59.995z" stroke="#fff" stroke-width="20"/>
  </g>
 </g>
</svg>
