<svg xmlns="http://www.w3.org/2000/svg" viewBox="0 0 500 500" xmlns:v="https://vecta.io/nano"><style><![CDATA[.B{stroke-linejoin:round}.C{stroke-linecap:round}.D{stroke-width:4}]]></style><g stroke="#fff" class="B"><g stroke-width="20"><path d="M12.84 507.84c-.79-60.708 4.17-103.44 7.363-164.8.577-11.084 9.432-47.29 12.14-59.918 16.54-77.176 34.216-131.22 74.832-188.76C117.6 79.606 133.238 69.78 144.53 58.03c20.36-21.19 49.69-25.073 73.493-37.998 15.333-8.325 66.563-10.376 84.128-4.667 34.664 11.267 64.016 38.29 91.42 68.508 9.97 10.994 17.427 26.634 27.122 36.13 5.307 5.2 11.326 22.2 15.054 29.932 34.333 71.218 27.185 117.73 41.27 195.47 3.924 21.655 2.657 43.616 8.04 64.22 2.997 11.474 1.76 32.998 2.63 45.333 1.093 15.495.47 19.594 1.107 48.183" class="C"/><path d="M229.3 332.25c-22.45 1.072-89.325 26.074-78.724 50.187 9.366 21.304 50.768 25.927 74.624 28.913 7.94.994 17.905 1.454 25.782 2.918 20.387 2.55 42.75 2.153 62.3 2.107 10.157 0 19.132-6.123 28.968-8.312 31.723-7.06 33.702-22.76 17.24-43.22-8.9-6.474-10.944-8.413-19.428-12.988-12.788-10.32-47.47-15.194-63.38-18.432-9.8-1.997-7.647-3.073-35.314-1.752z" fill="none"/></g><path d="M164.24 479.93c.25-3.028-1.12-6.715-.398-9.766 1.324-5.587 7.65-4.4 9.975-8.767 5.425-10.207-.684-17.937-.684-27.077m-11.263 41.75c-1.297-1.72-2.012-4.797-1.352-7.453.707-2.84 2.705-4.538 3.543-7.065.72-2.17 1.255-7.678.473-9.988-2.32-6.855-11.046-11.866-5-21.075m-20.314 8.24c-5.058 2.487-2.606 6.907-3.947 10.797-.795 2.305.38 3.293.7 5.666.728 5.237 7.707 9.95 11.808 13.15.9.695 2.598 1.56 3.214 2.506 1.542 2.367.8 5.177 2.103 7.893.878 1.846 5.047 5.2 7.043 6.096.908.408 1.562.023 2.25.56" transform="matrix(1.3374 -.33573 .32062 1.2772 -244.9 -139.68)" fill="none" stroke-width="2.226" class="C"/><path d="M172.887 395.253l28.686-17.75c15.27-9.448 30.932-21.106 47.275-28.824 4.956-2.34 10.412-6.407 14.88-6.21 1.83.082 9.95 10.56 10.535 15.032.343 2.614-2.87 3.58-5.302 5.6-6.673 5.538-31.008 20.287-39.81 25.732l-43.614 26.988c-6.785 4.198-15.233 9.884-21.715 14.48-13.288 8.777-33.382 21.046-33.43-3.084 1.06-4.53 8.978-9.233 13.463-12.796 8.586-7.2 19.45-13.242 29.03-19.167z" class="D"/><path d="M139.727 418.663c2.38-.23 3.676 1.838 4.9 3.572 1.464 2.074 2.466 4.73 2.874 7.185.432 2.6 6.728 4.384 8.617 5.3m-9.93 4.733c-2.174-14.308-6.32-10.65-11.43-17.093m-2.97 5.043c1 0 3.262.392 4.212.685 3 .93 5.08 11.595 7.366 11.595m-12.268-6.97c1.794.323 7.517-.784 5.795 7.68" stroke-width="2" class="C"/><path d="M231.72 361.6c-1.512-1.538-3.58-4.56-5.9-8.628-1.636-2.866-3.5-6.516-3.8-7.395a22.63 22.63 0 0 0-.557-1.474c-.178-.418-.304-.78-.28-.8.07-.068 3.535-.686 5.023-.896 1.62-.228 4.6-.462 5.87-.462.73 0 .9.04.957.227.4 1.353.508 9.8.16 13.656-.227 2.525-.554 5.195-.73 5.965l-.105.457zm14.58-.18c-1.88-1.345-4.34-5.717-6.735-11.972-.963-2.514-2.612-7.383-2.528-7.466.098-.096 13.216-.7 13.305-.62.026.026.17.926.32 2 .228 1.63.275 2.605.282 5.896.01 4.24-.083 5.136-.778 7.567-.645 2.257-2.33 4.96-3.093 4.96-.145 0-.493-.164-.773-.365zm15.74-3.24c-1.75-2.07-3.88-6.785-6.158-13.633-.614-1.844-1.08-3.4-1.036-3.434.143-.144 8.383-.093 10.027.06 1.47.138 3.407.446 3.52.56.07.07-.3 2.475-.666 4.3-1.002 5.036-2.577 9.448-4.18 11.708-.863 1.218-.846 1.213-1.5.43z" paint-order="markers fill stroke" stroke-width=".2"/><path d="M188.72 386.66c-5.858-10.457-25.75.236-25.75.236s19.01-12.01 9.194-15.37-10.884-4.95-10.884-4.95 21.46 7.79 20.745 2.552-4.116-12.378-4.116-12.378h-.001c14.127 9.245 10.555 16.757 20.9 11.1s2.794-20.393 2.794-20.393 8.917 27.66 16.345 15.59.045-21.275.045-21.275 14.384 32.332 16.266 19.272.017-21.684.017-21.684 8.14 30.408 14.963 23.078 2.147-25.818 2.147-25.818 7.61 28.836 12.736 23.5 6.43-19.33 6.43-19.33 3.43 29.006 12.938 21.092 13.028-15.674 13.028-15.674-7.907 21.598 4.243 19.464 10.17-16.62 10.17-16.62 2.04 28.083 10.16 21.775 6.982-16.647 6.982-16.647-1.44 20.912 5.346 20.043 12.61-8.446 12.61-8.446-6.79 14.62-1.37 13.51 11.26-4.888 11.26-4.888-10.683 7.376-7.2 9.703 11.792 4.27 11.792 4.27-20.302-4.193-14.086 3.88 3.875 8.153 3.875 8.153-15.51-21.54-18.03-10.347-.808 13.49-.808 13.49-11.98-22.34-16.792-12.846-2.743 19.58-2.743 19.58-4.097-28.64-13.095-21.126-5.924 20.316-5.924 20.316-12.045-29.427-15.95-21.795-6.454 20.104-6.454 20.104-2.977-29.477-11.47-19.232-6.752 17.133-6.752 17.133-2.03-28.088-10.183-17.823-10.776 17.076-10.776 17.076 1-10.788-1.53-14.42" fill="none" paint-order="normal" class="D"/></g><g fill="none" class="B"><path d="M121.5 168.53c12.206-6.72 18.73 8.703 29.08 8.703" stroke="#000" class="C D"/><g stroke="#fe0000" class="C D"><path d="M120.2 167.28c.895-.14 5.2-1.33 6.06-.472 2.6 2.6 4.37 6.092 8.095 7.35 4.47 1.5 10.1.174 14.315 1.542m-36.47 9.27c9.28-3.754 8.638 7.37 12.822 11.43 3.047 2.955 7.97 5.54 10.152 8.017m-8.604-6.857c2.938-3.917 1.672-10.023 7.48-10.023m-11.65 5.023c-.716.6-.784 4.004-1.753 4.5-1.012.52-8.67-.034-11.097-.034m-2.48 10.074c1.17-.2 3.952-1.465 5.37-.77.776.38 1.287 1.293 1.923 1.9 2.557 2.448 8.137-.57 9.972-1.488M106.04 224.1c1.094-.87 2.047-.92 3.377-.92.476 0 3.82.46 4.282 0 1.463-1.463 9.147-8.902 11.025-8.902M104.57 247.8c.14-2.118 2.262-3.5 3.74-4.82 1.646-1.485 3.312-2.46 5.045-3.7 1.394-1 2.394-3.478 3.436-4.52 1.122-1.122-.48-4.487.5-5.52 1.102-1.16 2.46 1.957 2.46 2.57m10.35 7.42c-.5 0-1.4.133-1.748.504-.8.826.653 3.75 0 4.73-2.737 4.105-5.83 7.606-7.85 13.918-1.363 2.08-2.76 1.817-2.76 3.947m24.698-.25c-1.72-8.618-5.977-5.84 1.017-12.587 1.084-1.046-.5-6.025-.5-6.918M159.6 262.55c-.884-1.62-2.45-2.727-2.673-4.523-.372-3.003 1.43-5.417 2.55-7.66 1.782-3.565-2.807-7.096-3.556-10.077m36.82-1.45c-5.572-2.042-1.862-.388-9.176-5.33-4-2.696-7.546-5.148-11.847-6.636-5.145-1.78-12.587 6.508-15.545-4.554M125.7 249.35c7.515-2.05 10.118 2.52 10.118-6.482M122.06 254.03c-3.38-.77-8.17-1.387-10.938 0-.816.4-1.222 2.004-1.774 2.557-.726.726-2.482-.03-2.924-.25m11.716-37.457c-2.417-1.647-.16-5.478-1.16-7.436-.272-.53-1.96-1.656-1.496-2.325.05-.07.725 0 .815 0M199.8 230c.08-1.533-1.108-2.676-1.535-3.958-.17-.514-.12-2.12-.505-2.505-2.183-2.183-7.5-3.7-9.8-5.966-1.8-1.756-9.82-.755-9.82-6.7m10.8 7.9c1.505 2.956-3.256 9.182.454 11.126 1.153.604 2.617 1.3 3.52 2.023 1.15.92-.754 5.5-.754 6.165m4.76-16.644c1.282-5.898 7.996-5.402 9.935-9.317.2-.425-2.865-5.176-2.865-6.767m17.83-.596c-1.437-2.125-.07-.38-3.187-2.818-4.936-3.858-5.115-2.346-9.8-4.7-.815-.408-3.17.115-3.8-.505-3.126-3.126-5.185-5.7-9.784-5.7m-20.6 59.893c-.777-5.066-9.284-10.098-6.443-15.78m59.373-55.2c-2.236 1.915-1.994 1.95-3.978 3.07-8.5 4.805-16.33-6.685-21.287-1.778M135.3 148.75c1.153 1.034 6.238.654 6.98 2.147 1.014 2.035.6 4.852 1.536 6.6 1.84 3.496 8.62 2.367 8.62 6.26M150.5 131.63l2.408 1.747c3.42 2.502 8.8 5.413 9.6 10.238.236 1.4-2.36 4.7-1.26 5.8 1.533 1.533 4.037 2.1 4.037 5.4m23.555-27.975c-11.054-.1-1.36 19.087-12.118 19.087m35.618-11.967c-.553 3.073-7.8.72-8.378 2.785-.647 2.356.755 3.78 1.5 5.286.328.656 0 2.32 0 3.033 0 4.317-2.888 5.042-6.687 5.042"/><path d="M224.5 156.55c-1.648.78-3.488.473-5.252.473-1 0-4.555-2.408-5.463-1.5-3.015 3.015-1.75 6.9-6.652 8.692-1.62.6-3.112.225-4.035-.72m26.502 5.935c-1.9.814-3.813.92-5.83.92-.9 0-10.14-1.642-10.888-1.264-.7.354-1.6 2.166-2.297 2.515-2.366 1.183-4.616.513-7.093.513m.178 15.916c4.168 0 6.746 5.263 8.243 8.988.314 1.2.83 1.652 1.068 2.318m4.12 1.824c-1.342 2.085-2.993 7.355-1.668 10.004.468.935.997 1.546.997 3.105m-9.46-33.63c.246-1.496.94-2.282 2.057-3.202 2.134-1.758 5.092-1.3 6.845-3.05 1.275-1.28-.715-4.62 1.978-4.62m-13.7-20.798c2.064-.1 2.304-.18 2.705 1.755 1.504 7.25-2.213 4.165-2.213 8.3M182.93 139.06l2.23 1.606c4.86 3.85 2.43 9.347 4.688 10.465m-27.928-.93c-4.6 3.518 3.866 6.416 2.3 9.417-.7 1.36-2.946 1.422-4.094 2.523m-13.056-1.08c-.586 0-1.008-.262-1.312.202-2.82 4.3 1.482 8.173 2.283 10.48m-10.7 3.758l1.143 1.675c2.322 3.3 7.87 4.6 8.368 5.592 1.222 2.405-2.493 3.84-1.523 5.752m22.222 49.5c-4.42-1.172-3.32-5.735-5.505-7.92-.728-.728-2.16-1.186-2.898-1.934"/></g><g stroke="#fe0000" class="C D"><path d="M389.33 154.86c-16.33-.527-7.73 7.58-12.47 14.854-1.175 1.804-3.595 2.192-5.277 3.22-2.392 1.46-6.092 3.342-8.903 3.342m40.78 14.574l-9.793-2.33c-6.407-1.684-11.43-3.85-16.882-.103-.392.27-1.996.24-2.273.532-2.97 3.136-2.374 3.448-7.444 3.448M410.7 207.26c-2.27.504-2.676.7-5.046.815-2.467.13-6.236.622-8.698 0-4.24-1.07-8.812-5.133-13.217-3.93-3.108.85-1.994 3.6-6.37 3.6m39.87 23.985c-2.6.112-13.327-7.007-16.43-5.453-1.808.906-2.02 4.334-3.532 5.846-.83.83-1.982.5-3.063.755-7.084 1.6-11.546-2.03-15.874-6.357m26.36 42.69c-1.202-1.947-.807-4.572-1.896-6.577-2.404-4.428-7.87-5.834-11.798-8.452-2.276-1.517-2.556-6.64-3.62-8.767m30.514-1.254h-2.736c-2.804 0-6.486.073-9.2-1.054-1.98-.824-8.912-6.973-10.4-3.96M369.36 271.1c-9.908-15.8 4.37-13.634 1.077-26.205M336.02 256.98c1.925-1.105 2.922-1.9 4.954-2.443.962-.262 3.673-.343 4.338-1.037 8.397-8.767.467-13.095 3.607-19.63.765-1.592 2.293-2.252 3.444-3.342.954-.903 1.278-1.983 2.534-2.602"/><path d="M369.05 254.78c-1.482-2.556-1.224-2.555-3.728-4.7-8.874-7.57-.537-9.398-3.804-12.664m28.932 17.494c1.177 4.337-9.302 6.6-12.4 5.034-1.067-.533-1.254-1.5-1.898-2.174m18.698-.62c1.463-.152 2.716-.84 3.25-1.9.28-.557 1.085-1.2 1.5-1.998 1.197-2.394-4.612-5.927-3.138-7.366.934-.912 2.084-1.62 3.002-2.477m-86.874-14.49c2.164-1.95 4.25-3.986 7.4-3.364 4.125.8 5.947 3.626 9.48 4.813 2.828.95 7.53-1.402 8.482-3.977.23-.624.252-2.33.76-2.84 2.14-2.14 4.28-3.08 6.536-4.2M305.16 206.28c1.957.222 4.52-.828 6.5-.254 3.463 1.004 7.3 4.205 11.264 2.872 2.03-.68 2.23-4.622 3.122-5.887 1.987-2.818 9.287-1.597 12.373-1.597m-33.27-22.084c2.193 2.136 6.2-.42 8.5.727 1.65.82 1.802 4.934 2.563 6.455 1.573 3.146 10.515 5.037 12.2 1.7M310.26 146.43c2.82 1.842 5.343 4.17 6.972 7.15 1.73 3.165-.01 7.165 1.076 10.447 1.598 4.824 8.94 6.4 10.348 7.603m-13.016 11.32c2.047-.525 4.53-2.24 6.74-1.5 2.168.728 5.93 2.182 7.304-.563"/><path d="M322.32 207.4l3.965 3.102c.55.427 2.622 2.695 3.984 2.02.466-.23 1.094-1.83 1.52-2.256 1.416-1.418 5.358-1.163 6.312.763m-4.64 18.91c-5.197-9.024-5.07-10.5 1.38-13.68m3.76 16.76c5.325 2.714-6.503 15.575 7.368 16.775 1.194.103 2.393-.13 3.6-.196 5.926-1.58 4.326-15.023 9.525-15.023m23.467-3.326c-3.353 1.343-9.286-3.18-12.065-1.804-1.298.643-1.124 1.243-2.723 1.243m12.868-22.59c.815 1.592.92 3.695.573 5.433-.424 2.12-3.572 4.2-2.995 5.952.342 1.04 1.315 1.94 1.404 2.794M373.2 191.2c1.5 6.452-.696 6.324-1.994 8.952-1.193 2.414 1.836 6.277-1.997 6.277m10.05-20.01c-3.12-4.164-.08-4.17 1.483-7.296.452-.903.23-1.92.747-2.945m-12.6-1.98c.514 1.35.9 2.76 1.542 4.05 2.22 4.396-5.687 5.778-4.77 9.172m10.568-18.392c-6.942-7.1-7.716 2.53-14.514-.9M325.47 136l1.6 6.596c.8 2.557 2.057 4.7 2.6 7.38.188.938-.655 5.262 0 5.947 2.05 2.142 5.22.83 5.22 4.103m16-22.366l-2.744 2.817c-.118 0-.316-.112-.354 0-2.017 6.05 5.376 10.605 2.487 16.393-.727 1.458-2.124 2.67-2.98 4.316m26.01-20.706c-14.084 4.34 1.695 10.072-11.805 16.743"/><path d="M357.67 164.96c-2.122-2.166-2.468-7.875-5.6-10.02-1.653-1.7-1.57-1.76-1.57-3.407m-19.3 5.647c5.203-3.628 8.162-1.8 12.8.507m-18.48 12.583c2.984-.36 5.926-3.314 8.3-.784m-15.9-11.146c-5.64 1.764.23 9.1-1.15 10.426-.97.932-2.4 1.72-3.08 2.45m14.53-24.676c-4.595-.4-5.885 3.115-5.885 6.785m44.745-3.255c3.32 1.882 3.82 7.07 5.823 9.242M396.8 207.84c3.263-7.054-6.776-10.363-3.7-14.03"/></g><path d="M151.07 121.7c-18.787 11.232-38.042 41.683-44.736 53.382-2.607 4.556-2.274 10.152-3.68 15.164-3.323 11.85-13.2 56.14-4.703 68.48 8.954 13.005 36.907 14.7 51.75 11.58 22.35-4.7 66.535-36.38 76.815-55.93 7.2-13.676 15.037-37.92 8.442-53.443-3.527-8.3-6.026-18.34-13.365-24.77-16.653-14.6-44.8-27.772-70.522-14.467zm145.83 50.7c0-14.387 1.57-24.168 7.76-35.892 8.714-16.506 67.158-10.65 78.857.8 14.175 13.9 32.3 56.35 38.15 78.187 4.805 17.94 7.113 47.75-6.624 60.812-4.1 3.9-56.88 4.836-62.697 2.108-3.355-1.574-8.9-4.032-12.623-6.377-14.648-9.25-29.757-27.126-35.766-39.655-6.122-18.945-6.83-42.787-7.057-59.995z" stroke="#fff" stroke-width="20"/></g></svg>